<?xml version="1.0" encoding="utf-8"?>
<!-- Generator: Adobe Illustrator 21.1.0, SVG Export Plug-In . SVG Version: 6.00 Build 0)  -->
<svg version="1.1" id="Capa_1" xmlns="http://www.w3.org/2000/svg" xmlns:xlink="http://www.w3.org/1999/xlink" x="0px" y="0px"
	 viewBox="0 0 512 512" style="enable-background:new 0 0 512 512;" xml:space="preserve">
<style type="text/css">
	.st0{fill:#002F54;}
</style>
<g id="Delete__x2F__Trash">
	<path class="st0" d="M120.4,477.2c0,0,7.6,34.8,46.9,34.8h177.5c39.3,0,46.9-34.8,46.9-34.8l35-340.7H85.3L120.4,477.2z
		 M324.3,187.7c0-9.4,7.6-17.1,17.1-17.1c9.4,0,17.1,7.6,17.1,17.1l-17.1,256c0,9.4-7.6,17.1-17.1,17.1c-9.4,0-17.1-7.6-17.1-17.1
		L324.3,187.7z M238.9,187.7c0-9.4,7.6-17.1,17.1-17.1c9.4,0,17.1,7.6,17.1,17.1v256c0,9.4-7.6,17.1-17.1,17.1
		c-9.4,0-17.1-7.6-17.1-17.1L238.9,187.7L238.9,187.7z M170.7,170.7c9.4,0,17.1,7.6,17.1,17.1l17.1,256c0,9.4-7.6,17.1-17.1,17.1
		c-9.4,0-17.1-7.6-17.1-17.1l-17.1-256C153.6,178.3,161.2,170.7,170.7,170.7z M416.4,68.3h-75.1V34.1C341.3,8.2,333,0,307.2,0H204.8
		c-23.6,0-34.1,11.4-34.1,34.1v34.2H95.6c-15.1,0-27.3,11.5-27.3,25.6c0,14.2,12.2,25.6,27.3,25.6h320.9c15.1,0,27.3-11.5,27.3-25.6
		C443.7,79.8,431.5,68.3,416.4,68.3z M307.2,68.3H204.8l0-34.2h102.4L307.2,68.3L307.2,68.3z"/>
</g>
</svg>
